# xmcd
#
# Track frame offsets: 
#        150
#        27758
#        42554
#        68647
#        80212
#        117269
#        136547
#        175380
#        185774
#        195220
#        210402
#        234152
#
# Disc length: 4083 seconds
#
# Revision: 1
# Processed by: cddbd v1.5.2PL0 Copyright (c) Steve Scherf et al.
# Submitted via: ExactAudioCopy v0.99pb5
#
DISCID=9b0ff10c
DTITLE=Various Artist - Classic meets Jazz - Live Mitschnitt aus der 
DTITLE=Friedenskirche Ludwigsburg
DYEAR=1998
DGENRE=Jazz
TTITLE0=Bernd Eberhardt (Orgel) - Fantasie in g-moll (J. S. Bach)
TTITLE1=Deep Brass - Canzon Septimi toni (Giovani Gabrieli, Bearbeitun
TTITLE1=g durch Johann Dohms)
TTITLE2=Frédéric Rabold Crew - The Dream of my Child (Frédéric Rabold)
TTITLE3=Oliver Schmidt (Marimbaphon) - Liebesland (Nebojsa Jovan Zivko
TTITLE3=vic)
TTITLE4=Frédéric Rabold Crew - For Lisa (Markus J. Widmann)
TTITLE5=Deep Brass - Pilgerchor aus Tannhäuser (Richard Wagner, Bearbe
TTITLE5=itung: Peter Redwig)
TTITLE6=Frédéric Rabold Crew - Madame Marianne (Frédéric Rabold)
TTITLE7=Deep Brass - Suite - Teil 1: Walrus meets hippo (Ingo Louis)
TTITLE8=Deep Brass - Suite - Teil 2:  Strange Dawn  (Ingo Louis)
TTITLE9=Deep Brass - Suite - Teil 3: Faux Burbon (Ingo Louis)
TTITLE10=Frédéric Rabold Crew - Ansia (Frédéric Rabold)
TTITLE11=F. Rabold Crew, Deep Brass, Oliver Schmidt - Island Suite 'La
TTITLE11=xa', 'Mannejökull', 'Tanz der Geysire', 'Hekla 91' (F. Rabold
TTITLE11=)
EXTD=YEAR: 1998
EXTT0=
EXTT1=
EXTT2=
EXTT3=
EXTT4=
EXTT5=
EXTT6=
EXTT7=
EXTT8=
EXTT9=
EXTT10=
EXTT11=
PLAYORDER=
